0
SECTION
2
HEADER
9
$INSUNITS
70
4
9
$ACADVER
1
AC1014
9
$HANDSEED
5
FFFF
0
ENDSEC
0
SECTION
2
TABLES
0
TABLE
2
VPORT
5
8
100
AcDbSymbolTable
0
ENDTAB
0
TABLE
2
LTYPE
5
5
100
AcDbSymbolTable
0
LTYPE
5
14
100
AcDbSymbolTableRecord
100
AcDbLinetypeTableRecord
2
BYBLOCK
70
0
0
LTYPE
5
15
100
AcDbSymbolTableRecord
100
AcDbLinetypeTableRecord
2
BYLAYER
70
0
0
ENDTAB
0
TABLE
2
LAYER
5
2
100
AcDbSymbolTable
70
2
0
LAYER
5
50
100
AcDbSymbolTableRecord
100
AcDbLayerTableRecord
2
0
70
0
6
CONTINUOUS
0
ENDTAB
0
TABLE
2
STYLE
5
3
100
AcDbSymbolTable
70
1
0
STYLE
5
11
100
AcDbSymbolTableRecord
100
AcDbTextStyleTableRecord
2
STANDARD
70
0
0
ENDTAB
0
TABLE
2
VIEW
5
6
100
AcDbSymbolTable
70
0
0
ENDTAB
0
TABLE
2
UCS
5
7
100
AcDbSymbolTable
70
0
0
ENDTAB
0
TABLE
2
APPID
5
9
100
AcDbSymbolTable
70
2
0
APPID
5
12
100
AcDbSymbolTableRecord
100
AcDbRegAppTableRecord
2
ACAD
70
0
0
ENDTAB
0
TABLE
2
DIMSTYLE
5
A
100
AcDbSymbolTable
70
1
0
ENDTAB
0
TABLE
2
BLOCK_RECORD
5
1
100
AcDbSymbolTable
70
1
0
BLOCK_RECORD
5
1F
100
AcDbSymbolTableRecord
100
AcDbBlockTableRecord
2
*MODEL_SPACE
0
BLOCK_RECORD
5
1B
100
AcDbSymbolTableRecord
100
AcDbBlockTableRecord
2
*PAPER_SPACE
0
ENDTAB
0
ENDSEC
0
SECTION
2
BLOCKS
0
BLOCK
5
20
100
AcDbEntity
100
AcDbBlockBegin
2
*MODEL_SPACE
0
ENDBLK
5
21
100
AcDbEntity
100
AcDbBlockEnd
0
BLOCK
5
1C
100
AcDbEntity
100
AcDbBlockBegin
2
*PAPER_SPACE
0
ENDBLK
5
1D
100
AcDbEntity
100
AcDbBlockEnd
0
ENDSEC
0
SECTION
2
ENTITIES
0
LWPOLYLINE
5
100
100
AcDbEntity
8
0
100
AcDbPolyline
90
35
70
1
43
0.0
10
-197.7992768252092
20
56.007269892321581
10
-177.85597896820238
20
67.47517478893505
10
-176.43628173589693
20
68.296024484339469
10
-191.03851203677345
20
93.551252158422145
10
-153.63027212923109
20
93.420672237310242
10
-153.71509495862102
20
69.120820281226017
10
-133.04489782839951
20
69.048667388780288
10
-44.540774834565426
20
69.039730292150864
10
-105.68254120883182
20
-36.491418120357622
10
-126.70193474571536
20
-24.298178380993068
10
-139.04570830902276
20
-45.577070603517086
10
-118.02631477213922
20
-57.770310342881714
10
-176.41552837565274
20
-158.50731654935285
10
-197.60097363192739
20
-158.47034093448582
10
-197.64384049114369
20
-183.03121713629966
10
-190.63716710931169
20
-183.04344610072934
10
-203.41765409316372
20
-205.09320353292327
10
-224.40982105642945
20
-192.85314935876301
10
-277.44503666361351
20
-283.81059816720978
10
-333.45510883698978
20
-186.41900880018522
10
-312.38951783785461
20
-174.3057567241672
10
-324.65231623579882
20
-152.98009670035131
10
-345.71790723493393
20
-165.0933487763694
10
-402.09019397864733
20
-67.058937474049316
10
-390.06438489932896
20
-46.406587417866433
10
-411.31070264449068
20
-34.012659559340236
10
-416.23680085067059
20
-42.457234106413431
10
-430.66021953745542
20
-17.37414023877772
10
-409.59462853832031
20
-5.2608881627596382
10
-466.9705690575247
20
94.518930550101459
10
-348.38266667319522
20
94.100489100620479
10
-348.46748950258524
20
69.800637144536211
10
-323.86763937420358
20
69.714767119721699
10
-323.78281654481361
20
94.014619075805982
10
-219.44504246170862
20
93.650410058155416
0
CIRCLE
5
101
100
AcDbEntity
8
0
100
AcDbCircle
10
-412.82677883350459
20
-36.611596458549869
30
0
40
3.0000000000000284
210
0
220
0
230
1
0
CIRCLE
5
102
100
AcDbEntity
8
0
100
AcDbCircle
10
-391.5551500687568
20
-48.966731515242543
30
0
40
3.000000000000012
210
0
220
0
230
1
0
CIRCLE
5
103
100
AcDbEntity
8
0
100
AcDbCircle
10
-348.45681815400997
20
72.857740903244775
30
0
40
2.999999999999996
210
0
220
0
230
1
0
CIRCLE
5
104
100
AcDbEntity
8
0
100
AcDbCircle
10
-323.82522795950882
20
72.719065078604345
30
0
40
2.999999999999992
210
0
220
0
230
1
0
CIRCLE
5
105
100
AcDbEntity
8
0
100
AcDbCircle
10
-199.29430502733658
20
58.607203621145658
30
0
40
3.0000000000000049
210
0
220
0
230
1
0
CIRCLE
5
106
100
AcDbEntity
8
0
100
AcDbCircle
10
-177.94710120717184
20
70.909056119595505
30
0
40
3.0000000000000027
210
0
220
0
230
1
0
CIRCLE
5
107
100
AcDbEntity
8
0
100
AcDbCircle
10
-124.10474532915157
20
-25.804794313994837
30
0
40
2.9999999999999987
210
0
220
0
230
1
0
CIRCLE
5
108
100
AcDbEntity
8
0
100
AcDbCircle
10
-136.41393897840356
20
-47.103746162954025
30
0
40
2.999999999999996
210
0
220
0
230
1
0
CIRCLE
5
109
100
AcDbEntity
8
0
100
AcDbCircle
10
-194.58422623332359
20
-158.47560615731277
30
0
40
3.0000000000000151
210
0
220
0
230
1
0
CIRCLE
5
110
100
AcDbEntity
8
0
100
AcDbCircle
10
-327.28708813396963
20
-154.49515773835691
30
0
40
2.999999999999992
210
0
220
0
230
1
0
CIRCLE
5
111
100
AcDbEntity
8
0
100
AcDbCircle
10
-314.99753459031001
20
-175.80543287103001
30
1.0283635910977686e-14
40
2.9999999999999942
210
0
220
0
230
1
0
ENDSEC
0
SECTION
2
OBJECTS
0
DICTIONARY
5
C
100
AcDbDictionary
3
ACAD_GROUP
350
D
3
ACAD_MLINESTYLE
350
17
0
DICTIONARY
5
D
100
AcDbDictionary
0
DICTIONARY
5
1A
330
C
100
AcDbDictionary
0
DICTIONARY
5
17
100
AcDbDictionary
0
ENDSEC
0
EOF
