0
SECTION
2
HEADER
9
$INSUNITS
70
4
9
$ACADVER
1
AC1014
9
$HANDSEED
5
FFFF
0
ENDSEC
0
SECTION
2
TABLES
0
TABLE
2
VPORT
5
8
100
AcDbSymbolTable
0
ENDTAB
0
TABLE
2
LTYPE
5
5
100
AcDbSymbolTable
0
LTYPE
5
14
100
AcDbSymbolTableRecord
100
AcDbLinetypeTableRecord
2
BYBLOCK
70
0
0
LTYPE
5
15
100
AcDbSymbolTableRecord
100
AcDbLinetypeTableRecord
2
BYLAYER
70
0
0
ENDTAB
0
TABLE
2
LAYER
5
2
100
AcDbSymbolTable
70
2
0
LAYER
5
50
100
AcDbSymbolTableRecord
100
AcDbLayerTableRecord
2
0
70
0
6
CONTINUOUS
0
ENDTAB
0
TABLE
2
STYLE
5
3
100
AcDbSymbolTable
70
1
0
STYLE
5
11
100
AcDbSymbolTableRecord
100
AcDbTextStyleTableRecord
2
STANDARD
70
0
0
ENDTAB
0
TABLE
2
VIEW
5
6
100
AcDbSymbolTable
70
0
0
ENDTAB
0
TABLE
2
UCS
5
7
100
AcDbSymbolTable
70
0
0
ENDTAB
0
TABLE
2
APPID
5
9
100
AcDbSymbolTable
70
2
0
APPID
5
12
100
AcDbSymbolTableRecord
100
AcDbRegAppTableRecord
2
ACAD
70
0
0
ENDTAB
0
TABLE
2
DIMSTYLE
5
A
100
AcDbSymbolTable
70
1
0
ENDTAB
0
TABLE
2
BLOCK_RECORD
5
1
100
AcDbSymbolTable
70
1
0
BLOCK_RECORD
5
1F
100
AcDbSymbolTableRecord
100
AcDbBlockTableRecord
2
*MODEL_SPACE
0
BLOCK_RECORD
5
1B
100
AcDbSymbolTableRecord
100
AcDbBlockTableRecord
2
*PAPER_SPACE
0
ENDTAB
0
ENDSEC
0
SECTION
2
BLOCKS
0
BLOCK
5
20
100
AcDbEntity
100
AcDbBlockBegin
2
*MODEL_SPACE
0
ENDBLK
5
21
100
AcDbEntity
100
AcDbBlockEnd
0
BLOCK
5
1C
100
AcDbEntity
100
AcDbBlockBegin
2
*PAPER_SPACE
0
ENDBLK
5
1D
100
AcDbEntity
100
AcDbBlockEnd
0
ENDSEC
0
SECTION
2
ENTITIES
0
LINE
5
100
100
AcDbEntity
8
0
100
AcDbLine
10
97.499395969201345
20
-160.18171955352011
30
0
11
118.11317859529825
21
-103.5458172587728
31
0
0
LINE
5
101
100
AcDbEntity
8
0
100
AcDbLine
10
3.9373785717544063
20
-158.41262438556032
30
0
11
17.724687113925324
21
-160.84369887289733
31
0
0
LINE
5
102
100
AcDbEntity
8
0
100
AcDbLine
10
72.207868303590899
20
-102.40661452114587
30
0
11
70.543139124666126
21
-92.104318760805356
31
0
0
LINE
5
103
100
AcDbEntity
8
0
100
AcDbLine
10
56.888950737110193
20
-159.57759319621113
30
0
11
72.207868303590899
21
-102.40661452114587
31
0
0
LINE
5
104
100
AcDbEntity
8
0
100
AcDbLine
10
84.343699278198599
20
-155.39343754696074
30
0
11
97.499395969201345
21
-160.18171955352011
31
0
0
LINE
5
105
100
AcDbEntity
8
0
100
AcDbLine
10
20.108213837695573
20
-207.49361460723296
30
0
11
57.599437983120758
21
-207.49361460723298
31
0
0
LWPOLYLINE
5
106
100
AcDbEntity
8
0
100
AcDbPolyline
90
37
70
1
43
0.0
10
-18.450000000000003
20
0
10
-2.4500000000000002
20
0
10
-2.4500000000000002
20
-10
10
0
20
-10
10
0
20
0
10
16.000000238418579
20
0
10
16.000000238418579
20
-50
10
15.999999999999996
20
-60
10
5.9999999999999956
20
-60
10
5.9999999999999956
20
-50
10
-3.9500000000000046
20
-50
10
-3.9500000000000046
20
-60
10
-13.950000000000005
20
-60
10
-13.950000000000005
20
-50
10
-23.900000000000006
20
-50
10
-23.900000000000006
20
-60
10
-33.900000000000006
20
-60
10
-33.900000000000006
20
-50
10
-43.850000000000009
20
-50
10
-43.850000000000009
20
-60
10
-53.850000000000009
20
-60
10
-53.850000000000009
20
-50
10
-63.800000000000011
20
-50
10
-63.800000000000011
20
-60
10
-73.800000000000011
20
-60
10
-73.800000000000011
20
0
10
-57.800000000000004
20
0
10
-57.800000000000004
20
-10.000000149011612
10
-55.350000000000001
20
-10.000000149011612
10
-55.350000000000001
20
0
10
-39.350000000000009
20
0
10
-39.350000000000009
20
-10.000000149011612
10
-36.900000000000006
20
-10.000000149011612
10
-36.900000000000006
20
0
10
-20.900000000000002
20
0
10
-20.900000000000002
20
-10
10
-18.450000000000003
20
-10
0
LINE
5
107
100
AcDbEntity
8
0
100
AcDbLine
10
58.932288571241891
20
-97.85990631001593
30
0
11
46.13342705859661
21
-82.491459935052518
31
0
0
SPLINE
5
108
100
AcDbEntity
8
0
100
AcDbSpline
70
4
71
5
72
36
73
30
74
0
42
0.000000001
43
0.0000000001
44
0.0000000001
40
0
40
0
40
0
40
0
40
0
40
0
40
0.040000000000000001
40
0.080000000000000002
40
0.12
40
0.16
40
0.20000000000000001
40
0.24000000000000002
40
0.28000000000000003
40
0.32000000000000001
40
0.35999999999999999
40
0.39999999999999997
40
0.43999999999999995
40
0.47999999999999993
40
0.51999999999999991
40
0.55999999999999994
40
0.59999999999999998
40
0.64000000000000001
40
0.68000000000000005
40
0.72000000000000008
40
0.76000000000000012
40
0.80000000000000016
40
0.84000000000000019
40
0.88000000000000023
40
0.92000000000000026
40
0.9600000000000003
40
1
40
1
40
1
40
1
40
1
40
1
41
1
41
1
41
1
41
1
41
1
41
1
41
1
41
1
41
1
41
1
41
1
41
1
41
1
41
1
41
1
41
1
41
1
41
1
41
1
41
1
41
1
41
1
41
1
41
1
41
1
41
1
41
1
41
1
41
1
41
1
10
-32.179309977617343
20
-72.406758066824921
30
0
10
-31.542313247933969
20
-73.420084831364719
30
0
10
-30.232729718237966
20
-75.403284623353215
30
0
10
-28.161581517606539
20
-78.247714870479072
30
0
10
-25.209992840744015
20
-81.8120216038851
30
0
10
-21.343582008238954
20
-86.067661913017304
30
0
10
-17.48650586525083
20
-90.344195593389372
30
0
10
-13.835463624083157
20
-94.83852806934533
30
0
10
-10.565491166260514
20
-99.669891217457319
30
0
10
-7.7884274467141923
20
-104.80126727597641
30
0
10
-5.5437282496435838
20
-110.04497712406234
30
0
10
-3.8245990572949284
20
-115.15807997077064
30
0
10
-2.5945345351648137
20
-119.91777087796291
30
0
10
-1.8062046667365208
20
-124.19522638475443
30
0
10
-1.4212123924640294
20
-128.05456076069083
30
0
10
-1.4212819124897493
20
-131.75828123042362
30
0
10
-1.8063162119952703
20
-135.61799830009409
30
0
10
-2.5944433058357013
20
-139.89611113359177
30
0
10
-3.8241074255126781
20
-144.65650760803851
30
0
10
-5.5428585736484992
20
-149.77007008742859
30
0
10
-7.7874705463495486
20
-155.01372217460695
30
0
10
-10.56495516749713
20
-160.14435873762437
30
0
10
-13.835926220298351
20
-164.97431851337785
30
0
10
-17.488333808724597
20
-169.46689678353394
30
0
10
-21.346666416741883
20
-173.74190374787196
30
0
10
-25.213638203960166
20
-177.99692753308915
30
0
10
-28.164652095125128
20
-181.56200046841752
30
0
10
-30.234590471931497
20
-184.40794179282491
30
0
10
-31.542995491322969
20
-186.39259390796474
30
0
10
-32.179309977617393
20
-187.40675806682498
30
0
0
LINE
5
109
100
AcDbEntity
8
0
100
AcDbLine
10
79.736396934533261
20
-174.51096199039165
30
0
11
78.809060908317093
21
-192.57932324878141
31
0
0
LINE
5
110
100
AcDbEntity
8
0
100
AcDbLine
10
20.108213837695573
20
-207.49361460723296
30
0
11
20.108213837695558
21
-221.49361460723298
31
0
0
LINE
5
111
100
AcDbEntity
8
0
100
AcDbLine
10
68.315216181889951
20
-190.60657526948097
30
0
11
70.516029217269818
21
-170.72803352257978
31
0
0
LINE
5
112
100
AcDbEntity
8
0
100
AcDbLine
10
99.423238224013119
20
-75.133733810750996
30
0
11
117.56816194179947
21
-96.086636902263621
31
0
0
LINE
5
113
100
AcDbEntity
8
0
100
AcDbLine
10
57.599437983120758
20
-207.49361460723298
30
0
11
68.315216181889951
21
-190.60657526948097
31
0
0
LINE
5
114
100
AcDbEntity
8
0
100
AcDbLine
10
-17.529854322548903
20
-196.99491382121155
30
0
11
-5.7816159196138095
21
-173.68344357904886
31
0
0
LINE
5
115
100
AcDbEntity
8
0
100
AcDbLine
10
43.365989169063226
20
-155.95412656477583
30
0
11
58.932288571241891
21
-97.85990631001593
31
0
0
LINE
5
116
100
AcDbEntity
8
0
100
AcDbLine
10
54.727692180051662
20
-221.49361460723298
30
0
11
65.370937415306472
21
-216.71504324170678
31
0
0
SPLINE
5
117
100
AcDbEntity
8
0
100
AcDbSpline
70
4
71
5
72
21
73
15
74
0
42
0.000000001
43
0.0000000001
44
0.0000000001
40
0
40
0
40
0
40
0
40
0
40
0
40
0.10000000000000001
40
0.20000000000000001
40
0.30000000000000004
40
0.40000000000000002
40
0.5
40
0.59999999999999998
40
0.69999999999999996
40
0.79999999999999993
40
0.89999999999999991
40
1
40
1
40
1
40
1
40
1
40
1
41
1
41
1
41
1
41
1
41
1
41
1
41
1
41
1
41
1
41
1
41
1
41
1
41
1
41
1
41
1
10
-5.7816159196138095
20
-173.68344357904886
30
0
10
-5.7401744785527082
20
-172.79706205035339
30
0
10
-5.6336712339243409
20
-171.11319402047525
30
0
10
-5.4030523906635128
20
-168.85408793016953
30
0
10
-4.9515259354755177
20
-166.38401967412167
30
0
10
-4.1320625495121437
20
-164.25633280664968
30
0
10
-3.0394075787237318
20
-163.15680007699865
30
0
10
-1.6590725244513065
20
-163.13994882300125
30
0
10
0.0037903643738521273
20
-164.18638860088686
30
0
10
1.9271062768949434
20
-166.21304105323557
30
0
10
4.0857804749129043
20
-169.12546235251682
30
0
10
5.9831932401797525
20
-172.09697456614253
30
0
10
7.4956338144768173
20
-174.66199333863455
30
0
10
8.5429991300648762
20
-176.51905147585995
30
0
10
9.0764502958628945
20
-177.48434423882196
30
0
0
LINE
5
118
100
AcDbEntity
8
0
100
AcDbLine
10
94.089152050521761
20
-84.382911321169416
30
0
11
76.162155448767692
21
-75.515961854713126
31
0
0
LWPOLYLINE
5
119
100
AcDbEntity
8
0
100
AcDbPolyline
90
24
70
1
43
0.0
10
96.349999999999994
20
0
10
25
20
0
10
25.049999999999997
20
-50
10
35
20
-50
10
35
20
-60
10
45
20
-60
10
45
20
-50
10
54.950000000000003
20
-50
10
54.950000000000003
20
-60
10
64.950000000000003
20
-60
10
64.950000000000003
20
-50
10
74.900000000000006
20
-50
10
74.900000000000006
20
-60
10
84.900000000000006
20
-60
10
84.900000000000006
20
-50
10
94.849999999999994
20
-50
10
94.849999999999994
20
-60
10
104.84999999999999
20
-60
10
104.84999999999999
20
-50
10
114.79999999999998
20
-50
10
114.79999999999998
20
0
10
98.799999999999983
20
0
10
98.799999999999983
20
-8.5
10
96.349999999999994
20
-8.5
0
LINE
5
120
100
AcDbEntity
8
0
100
AcDbLine
10
29.447267708094383
20
-94.361640670183476
30
0
11
28.352561905883242
21
-90.028721548441723
31
0
0
LINE
5
121
100
AcDbEntity
8
0
100
AcDbLine
10
-67.261974456774979
20
-196.99491382121155
30
0
11
-17.529854322548903
21
-196.99491382121155
31
0
0
LINE
5
122
100
AcDbEntity
8
0
100
AcDbLine
10
46.13342705859661
20
-82.491459935052518
30
0
11
27.501842524565522
21
-75.220692592381909
31
0
0
LINE
5
123
100
AcDbEntity
8
0
100
AcDbLine
10
33.39513169596821
20
-67.229634629827217
30
0
11
50.641096488067738
21
-72.812582095133621
31
0
0
SPLINE
5
124
100
AcDbEntity
8
0
100
AcDbSpline
70
4
71
5
72
21
73
15
74
0
42
0.000000001
43
0.0000000001
44
0.0000000001
40
0
40
0
40
0
40
0
40
0
40
0
40
0.10000000000000001
40
0.20000000000000001
40
0.30000000000000004
40
0.40000000000000002
40
0.5
40
0.59999999999999998
40
0.69999999999999996
40
0.79999999999999993
40
0.89999999999999991
40
1
40
1
40
1
40
1
40
1
40
1
41
1
41
1
41
1
41
1
41
1
41
1
41
1
41
1
41
1
41
1
41
1
41
1
41
1
41
1
41
1
10
-15.996454545114016
20
-76.960638848899265
30
0
10
-16.641198814672158
20
-77.093692718498531
30
0
10
-17.859881505872323
20
-77.331170884486923
30
0
10
-19.475485607647165
20
-77.60149844695232
30
0
10
-21.197815182625863
20
-77.787337840160134
30
0
10
-22.588384956549422
20
-77.711392320540426
30
0
10
-23.1682281894781
20
-77.307638356525473
30
0
10
-22.907918216726706
20
-76.564177596834227
30
0
10
-21.843067037475681
20
-75.495409365357688
30
0
10
-20.045735026170895
20
-74.130470489439986
30
0
10
-17.592856177614088
20
-72.500468391721228
30
0
10
-15.15799881994354
20
-71.005394539134954
30
0
10
-13.084607352518788
20
-69.784116932914642
30
0
10
-11.594256662559213
20
-68.926226964765306
30
0
10
-10.822057710307202
20
-68.486355279498127
30
0
0
LINE
5
125
100
AcDbEntity
8
0
100
AcDbLine
10
-67.261974456774979
20
-196.99491382121155
30
0
11
-67.261974456774979
21
-216.99491382121155
31
0
0
LINE
5
126
100
AcDbEntity
8
0
100
AcDbLine
10
-16.316556420951134
20
-216.99491382121155
30
0
11
-67.261974456774979
21
-216.99491382121155
31
0
0
LINE
5
127
100
AcDbEntity
8
0
100
AcDbLine
10
9.0764502958628945
20
-177.48434423882196
30
0
11
-0.066481418810955262
21
-206.5094038225439
31
0
0
LINE
5
128
100
AcDbEntity
8
0
100
AcDbLine
10
20.108213837695558
20
-221.49361460723298
30
0
11
54.727692180051662
21
-221.49361460723298
31
0
0
SPLINE
5
129
100
AcDbEntity
8
0
100
AcDbSpline
70
4
71
5
72
36
73
30
74
0
42
0.000000001
43
0.0000000001
44
0.0000000001
40
0
40
0
40
0
40
0
40
0
40
0
40
0.040000000000000001
40
0.080000000000000002
40
0.12
40
0.16
40
0.20000000000000001
40
0.24000000000000002
40
0.28000000000000003
40
0.32000000000000001
40
0.35999999999999999
40
0.39999999999999997
40
0.43999999999999995
40
0.47999999999999993
40
0.51999999999999991
40
0.55999999999999994
40
0.59999999999999998
40
0.64000000000000001
40
0.68000000000000005
40
0.72000000000000008
40
0.76000000000000012
40
0.80000000000000016
40
0.84000000000000019
40
0.88000000000000023
40
0.92000000000000026
40
0.9600000000000003
40
1
40
1
40
1
40
1
40
1
40
1
41
1
41
1
41
1
41
1
41
1
41
1
41
1
41
1
41
1
41
1
41
1
41
1
41
1
41
1
41
1
41
1
41
1
41
1
41
1
41
1
41
1
41
1
41
1
41
1
41
1
41
1
41
1
41
1
41
1
41
1
10
-32.179309977617343
20
-72.406758066824921
30
0
10
-32.816306707300711
20
-73.420084831364719
30
0
10
-34.125890236996163
20
-75.403284623353088
30
0
10
-36.197038437625046
20
-78.247714870478347
30
0
10
-39.148627114484398
20
-81.812021603883082
30
0
10
-43.015037946987974
20
-86.067661913013978
30
0
10
-46.872114089977941
20
-90.344195593386175
30
0
10
-50.523156331149735
20
-94.838528069344065
30
0
10
-53.793128788976105
20
-99.669891217458456
30
0
10
-56.570192508524372
20
-104.80126727597957
30
0
10
-58.814891705595052
20
-110.04497712406602
30
0
10
-60.53402089794222
20
-115.15807997077317
30
0
10
-61.764085420070607
20
-119.91777087796368
30
0
10
-62.552415288497585
20
-124.1952263847537
30
0
10
-62.93740756276965
20
-128.05456076068975
30
0
10
-62.93733804274423
20
-131.75828123042302
30
0
10
-62.552303743239328
20
-135.61799830009411
30
0
10
-61.764176649399303
20
-139.89611113359183
30
0
10
-60.534512529722413
20
-144.65650760803834
30
0
10
-58.815761381586455
20
-149.77007008742808
30
0
10
-56.57114940888529
20
-155.01372217460644
30
0
10
-53.793664787737576
20
-160.14435873762423
30
0
10
-50.522693734936368
20
-164.97431851337805
30
0
10
-46.870286146510132
20
-169.46689678353439
30
0
10
-43.011953538492868
20
-173.74190374787253
30
0
10
-39.144981751274727
20
-177.99692753308955
30
0
10
-36.19396786010978
20
-181.56200046841769
30
0
10
-34.124029483303339
20
-184.40794179282494
30
0
10
-32.815624463911817
20
-186.39259390796474
30
0
10
-32.179309977617393
20
-187.40675806682498
30
0
0
CIRCLE
5
130
100
AcDbEntity
8
0
100
AcDbCircle
10
-32.293034022221121
20
-130.11372404460386
30
0
40
22.966795165850474
210
0
220
0
230
1
0
LINE
5
131
100
AcDbEntity
8
0
100
AcDbLine
10
-0.066481418810955262
20
-206.5094038225439
30
0
11
-16.316556420951134
21
-216.99491382121155
31
0
0
LINE
5
132
100
AcDbEntity
8
0
100
AcDbLine
10
3.197920312831799
20
-82.579889138097087
30
0
11
-15.996454545114016
21
-76.960638848899265
31
0
0
LINE
5
133
100
AcDbEntity
8
0
100
AcDbLine
10
14.38555074845717
20
-99.15809547159013
30
0
11
3.197920312831799
21
-82.579889138097087
31
0
0
LINE
5
134
100
AcDbEntity
8
0
100
AcDbLine
10
-70
20
-100.00000000000006
30
0
11
30
21
-100.00000000000006
31
0
0
LINE
5
135
100
AcDbEntity
8
0
100
AcDbLine
10
118.11317859529825
20
-103.5458172587728
30
0
11
117.56816194179947
21
-96.086636902263621
31
0
0
LINE
5
136
100
AcDbEntity
8
0
100
AcDbLine
10
43.365989169063226
20
-155.95412656477583
30
0
11
56.888950737110193
21
-159.57759319621113
31
0
0
LINE
5
137
100
AcDbEntity
8
0
100
AcDbLine
10
3.9373785717544063
20
-158.41262438556032
30
0
11
14.38555074845717
21
-99.15809547159013
31
0
0
LINE
5
138
100
AcDbEntity
8
0
100
AcDbLine
10
84.343699278198599
20
-155.39343754696074
30
0
11
103.83218676571089
21
-101.84925823569664
31
0
0
LINE
5
139
100
AcDbEntity
8
0
100
AcDbLine
10
17.724687113925324
20
-160.84369887289733
30
0
11
29.447267708094383
21
-94.361640670183476
31
0
0
SPLINE
5
140
100
AcDbEntity
8
0
100
AcDbSpline
70
4
71
5
72
21
73
15
74
0
42
0.000000001
43
0.0000000001
44
0.0000000001
40
0
40
0
40
0
40
0
40
0
40
0
40
0.10000000000000001
40
0.20000000000000001
40
0.30000000000000004
40
0.40000000000000002
40
0.5
40
0.59999999999999998
40
0.69999999999999996
40
0.79999999999999993
40
0.89999999999999991
40
1
40
1
40
1
40
1
40
1
40
1
41
1
41
1
41
1
41
1
41
1
41
1
41
1
41
1
41
1
41
1
41
1
41
1
41
1
41
1
41
1
10
76.162155448767692
20
-75.515961854713126
30
0
10
75.504101731417265
20
-75.535035669593569
30
0
10
74.262695917915281
20
-75.557283980150189
30
0
10
72.624694584104773
20
-75.542957951415403
30
0
10
70.896260393454781
20
-75.426894634624148
30
0
10
69.540004300061298
20
-75.110632990934164
30
0
10
69.039081328800535
20
-74.612324236131116
30
0
10
69.424537214224486
20
-73.925360668323577
30
0
10
70.658800567090282
20
-73.057738894556522
30
0
10
72.665846214987923
20
-72.025639935591556
30
0
10
75.364507216112372
20
-70.846339174422255
30
0
10
78.021990469411008
20
-69.796787396107774
30
0
10
80.275955092312344
20
-68.954104390829499
30
0
10
81.892635036104409
20
-68.368044380359947
30
0
10
82.729485467706581
20
-68.068946275232648
30
0
0
SPLINE
5
141
100
AcDbEntity
8
0
100
AcDbSpline
70
4
71
5
72
21
73
15
74
0
42
0.000000001
43
0.0000000001
44
0.0000000001
40
0
40
0
40
0
40
0
40
0
40
0
40
0.10000000000000001
40
0.20000000000000001
40
0.30000000000000004
40
0.40000000000000002
40
0.5
40
0.59999999999999998
40
0.69999999999999996
40
0.79999999999999993
40
0.89999999999999991
40
1
40
1
40
1
40
1
40
1
40
1
41
1
41
1
41
1
41
1
41
1
41
1
41
1
41
1
41
1
41
1
41
1
41
1
41
1
41
1
41
1
10
70.516029217269818
20
-170.72803352257978
30
0
10
70.27393088138021
20
-170.12596177223418
30
0
10
69.830182137350121
20
-168.98609124053354
30
0
10
69.28590355511696
20
-167.4691055426232
30
0
10
68.806874448016018
20
-165.838432974054
30
0
10
68.643452882985329
20
-164.49190000380983
30
0
10
68.942736788485632
20
-163.8806198886993
30
0
10
69.720748028052171
20
-164.03005184990678
30
0
10
70.956216579728391
20
-164.90639718530809
30
0
10
72.607739050186254
20
-166.44386466247397
30
0
10
74.631303814760344
20
-168.57251849123287
30
0
10
76.518234791143499
20
-170.70142737852663
30
0
10
78.073670769241971
20
-172.5209510235515
30
0
10
79.171936401311655
20
-173.83138753356411
30
0
10
79.736396934533261
20
-174.51096199039165
30
0
0
SPLINE
5
142
100
AcDbEntity
8
0
100
AcDbSpline
70
4
71
5
72
21
73
15
74
0
42
0.000000001
43
0.0000000001
44
0.0000000001
40
0
40
0
40
0
40
0
40
0
40
0
40
0.10000000000000001
40
0.20000000000000001
40
0.30000000000000004
40
0.40000000000000002
40
0.5
40
0.59999999999999998
40
0.69999999999999996
40
0.79999999999999993
40
0.89999999999999991
40
1
40
1
40
1
40
1
40
1
40
1
41
1
41
1
41
1
41
1
41
1
41
1
41
1
41
1
41
1
41
1
41
1
41
1
41
1
41
1
41
1
10
27.501842524565522
20
-75.220692592381909
30
0
10
26.847955292776998
20
-75.297046986149837
30
0
10
25.613212471205166
20
-75.427406280908471
30
0
10
23.980195631310188
20
-75.555895989920572
30
0
10
22.248223070001899
20
-75.590917294769056
30
0
10
20.869563922061939
20
-75.394064629277565
30
0
10
20.327116644314916
20
-74.941310403329297
30
0
10
20.651232933747057
20
-74.223366245287423
30
0
10
21.805181321817052
20
-73.25147289503343
30
0
10
23.71463620372932
20
-72.048375830030722
30
0
10
26.300245151232122
20
-70.638358860324942
30
0
10
28.856141413636376
20
-69.361186016623634
30
0
10
31.028084357420877
20
-68.325263713767214
30
0
10
32.587533850421892
20
-67.600530897295144
30
0
10
33.39513169596821
20
-67.229634629827217
30
0
0
LINE
5
143
100
AcDbEntity
8
0
100
AcDbLine
10
-10.822057710307202
20
-68.486355279498127
30
0
11
6.8448669121191887
21
-72.544973073305684
31
0
0
LINE
5
144
100
AcDbEntity
8
0
100
AcDbLine
10
6.8448669121191887
20
-72.544973073305684
30
0
11
28.352561905883242
21
-90.028721548441723
31
0
0
LINE
5
145
100
AcDbEntity
8
0
100
AcDbLine
10
50.641096488067738
20
-72.812582095133621
30
0
11
70.543139124666126
21
-92.104318760805356
31
0
0
LINE
5
146
100
AcDbEntity
8
0
100
AcDbLine
10
78.809060908317093
20
-192.57932324878141
30
0
11
65.370937415306472
21
-216.71504324170678
31
0
0
LINE
5
147
100
AcDbEntity
8
0
100
AcDbLine
10
103.83218676571089
20
-101.84925823569664
30
0
11
94.089152050521761
21
-84.382911321169416
31
0
0
LINE
5
148
100
AcDbEntity
8
0
100
AcDbLine
10
82.729485467706581
20
-68.068946275232648
30
0
11
99.423238224013119
21
-75.133733810750996
31
0
0
ENDSEC
0
SECTION
2
OBJECTS
0
DICTIONARY
5
C
100
AcDbDictionary
3
ACAD_GROUP
350
D
3
ACAD_MLINESTYLE
350
17
0
DICTIONARY
5
D
100
AcDbDictionary
0
DICTIONARY
5
1A
330
C
100
AcDbDictionary
0
DICTIONARY
5
17
100
AcDbDictionary
0
ENDSEC
0
EOF
