0
SECTION
2
HEADER
9
$INSUNITS
70
4
9
$ACADVER
1
AC1014
9
$HANDSEED
5
FFFF
0
ENDSEC
0
SECTION
2
TABLES
0
TABLE
2
VPORT
5
8
100
AcDbSymbolTable
0
ENDTAB
0
TABLE
2
LTYPE
5
5
100
AcDbSymbolTable
0
LTYPE
5
14
100
AcDbSymbolTableRecord
100
AcDbLinetypeTableRecord
2
BYBLOCK
70
0
0
LTYPE
5
15
100
AcDbSymbolTableRecord
100
AcDbLinetypeTableRecord
2
BYLAYER
70
0
0
ENDTAB
0
TABLE
2
LAYER
5
2
100
AcDbSymbolTable
70
2
0
LAYER
5
50
100
AcDbSymbolTableRecord
100
AcDbLayerTableRecord
2
0
70
0
6
CONTINUOUS
0
ENDTAB
0
TABLE
2
STYLE
5
3
100
AcDbSymbolTable
70
1
0
STYLE
5
11
100
AcDbSymbolTableRecord
100
AcDbTextStyleTableRecord
2
STANDARD
70
0
0
ENDTAB
0
TABLE
2
VIEW
5
6
100
AcDbSymbolTable
70
0
0
ENDTAB
0
TABLE
2
UCS
5
7
100
AcDbSymbolTable
70
0
0
ENDTAB
0
TABLE
2
APPID
5
9
100
AcDbSymbolTable
70
2
0
APPID
5
12
100
AcDbSymbolTableRecord
100
AcDbRegAppTableRecord
2
ACAD
70
0
0
ENDTAB
0
TABLE
2
DIMSTYLE
5
A
100
AcDbSymbolTable
70
1
0
ENDTAB
0
TABLE
2
BLOCK_RECORD
5
1
100
AcDbSymbolTable
70
1
0
BLOCK_RECORD
5
1F
100
AcDbSymbolTableRecord
100
AcDbBlockTableRecord
2
*MODEL_SPACE
0
BLOCK_RECORD
5
1B
100
AcDbSymbolTableRecord
100
AcDbBlockTableRecord
2
*PAPER_SPACE
0
ENDTAB
0
ENDSEC
0
SECTION
2
BLOCKS
0
BLOCK
5
20
100
AcDbEntity
100
AcDbBlockBegin
2
*MODEL_SPACE
0
ENDBLK
5
21
100
AcDbEntity
100
AcDbBlockEnd
0
BLOCK
5
1C
100
AcDbEntity
100
AcDbBlockBegin
2
*PAPER_SPACE
0
ENDBLK
5
1D
100
AcDbEntity
100
AcDbBlockEnd
0
ENDSEC
0
SECTION
2
ENTITIES
0
SPLINE
5
100
100
AcDbEntity
8
0
100
AcDbSpline
70
4
71
5
72
21
73
15
74
0
42
0.000000001
43
0.0000000001
44
0.0000000001
40
0
40
0
40
0
40
0
40
0
40
0
40
0.10000000000000001
40
0.20000000000000001
40
0.30000000000000004
40
0.40000000000000002
40
0.5
40
0.59999999999999998
40
0.69999999999999996
40
0.79999999999999993
40
0.89999999999999991
40
1
40
1
40
1
40
1
40
1
40
1
41
1
41
1
41
1
41
1
41
1
41
1
41
1
41
1
41
1
41
1
41
1
41
1
41
1
41
1
41
1
10
3.376589846466862
20
108.56730915580009
30
0
10
3.2409570844918338
20
108.62732203945174
30
0
10
2.9695734455198073
20
108.7420997198514
30
0
10
2.562143652041073
20
108.89852242606929
30
0
10
2.0181835115736861
20
109.07507651673163
30
0
10
1.3369512955037501
20
109.23880550450663
30
0
10
0.65432301389209413
20
109.34050450519686
30
0
10
-0.029814403010074503
20
109.3751496034824
30
0
10
-0.71552111035498023
20
109.34006798550614
30
0
10
-1.4027331214952918
20
109.23810270610457
30
0
10
-2.091336070335851
20
109.07433527984347
30
0
10
-2.6432394927033913
20
108.89795345231866
30
0
10
-3.0577048462031788
20
108.74177214078868
30
0
10
-3.3342501966731102
20
108.62720464498251
30
0
10
-3.4725816525425834
20
108.56730915580009
30
0
0
SPLINE
5
101
100
AcDbEntity
8
0
100
AcDbSpline
70
4
71
5
72
21
73
15
74
0
42
0.000000001
43
0.0000000001
44
0.0000000001
40
0
40
0
40
0
40
0
40
0
40
0
40
0.10000000000000001
40
0.20000000000000001
40
0.30000000000000004
40
0.40000000000000002
40
0.5
40
0.59999999999999998
40
0.69999999999999996
40
0.79999999999999993
40
0.89999999999999991
40
1
40
1
40
1
40
1
40
1
40
1
41
1
41
1
41
1
41
1
41
1
41
1
41
1
41
1
41
1
41
1
41
1
41
1
41
1
41
1
41
1
10
-3.4725816525425834
20
108.56730915580009
30
0
10
-3.7064575688971448
20
108.44190794205599
30
0
10
-4.1957991864758082
20
108.10638015218507
30
0
10
-4.9945775636089182
20
107.34892573802412
30
0
10
-6.1913087729660141
20
105.82217874020942
30
0
10
-7.9158239315506052
20
103.01663948083757
30
0
10
-9.8725006724437279
20
99.300022398684305
30
0
10
-12.046149625860178
20
94.731935538335534
30
0
10
-14.412615614049074
20
89.407171701130267
30
0
10
-16.946166919391246
20
83.426710545407673
30
0
10
-19.624116451297468
20
76.879583619324876
30
0
10
-21.868505894376035
20
71.241483773423283
30
0
10
-23.604762660560596
20
66.805058182607212
30
0
10
-24.785423249615313
20
63.756569113160879
30
0
10
-25.381542732585444
20
62.209605913485632
30
0
0
SPLINE
5
102
100
AcDbEntity
8
0
100
AcDbSpline
70
4
71
5
72
26
73
20
74
0
42
0.000000001
43
0.0000000001
44
0.0000000001
40
0
40
0
40
0
40
0
40
0
40
0
40
0.066666666666666666
40
0.13333333333333333
40
0.20000000000000001
40
0.26666666666666666
40
0.33333333333333331
40
0.39999999999999997
40
0.46666666666666662
40
0.53333333333333333
40
0.59999999999999998
40
0.66666666666666663
40
0.73333333333333328
40
0.79999999999999993
40
0.86666666666666659
40
0.93333333333333324
40
1
40
1
40
1
40
1
40
1
40
1
41
1
41
1
41
1
41
1
41
1
41
1
41
1
41
1
41
1
41
1
41
1
41
1
41
1
41
1
41
1
41
1
41
1
41
1
41
1
41
1
10
-25.381542732585444
20
62.209605913485632
30
0
10
-25.429882606174129
20
61.909531758896776
30
0
10
-25.522165258198733
20
61.302339691537981
30
0
10
-25.647398109380489
20
60.3704199344645
30
0
10
-25.787799881112612
20
59.085293018945244
30
0
10
-25.917336568085268
20
57.406507383495708
30
0
10
-25.997882047476647
20
55.654373953234533
30
0
10
-26.025018716901943
20
53.829465410675539
30
0
10
-25.992902205002011
20
51.935764877377451
30
0
10
-25.894703310848239
20
49.980204480195241
30
0
10
-25.723323812103352
20
47.971086473728626
30
0
10
-25.472305794190717
20
45.917081050965145
30
0
10
-25.136739049611311
20
43.826257204937953
30
0
10
-24.714936507657782
20
41.705117063399811
30
0
10
-24.208022162555849
20
39.558390799574312
30
0
10
-23.618337289781447
20
37.389333569855587
30
0
10
-23.082487898425093
20
35.637795816528254
30
0
10
-22.64546941146925
20
34.315405821016327
30
0
10
-22.338623373495452
20
33.429957468916363
30
0
10
-22.181325206238348
20
32.986269541106083
30
0
0
SPLINE
5
103
100
AcDbEntity
8
0
100
AcDbSpline
70
4
71
5
72
41
73
35
74
0
42
0.000000001
43
0.0000000001
44
0.0000000001
40
0
40
0
40
0
40
0
40
0
40
0
40
0.033333333333333333
40
0.066666666666666666
40
0.10000000000000001
40
0.13333333333333333
40
0.16666666666666666
40
0.19999999999999998
40
0.23333333333333331
40
0.26666666666666666
40
0.29999999999999999
40
0.33333333333333331
40
0.36666666666666664
40
0.39999999999999997
40
0.43333333333333329
40
0.46666666666666662
40
0.49999999999999994
40
0.53333333333333333
40
0.56666666666666665
40
0.59999999999999998
40
0.6333333333333333
40
0.66666666666666663
40
0.69999999999999996
40
0.73333333333333328
40
0.76666666666666661
40
0.79999999999999993
40
0.83333333333333326
40
0.86666666666666659
40
0.89999999999999991
40
0.93333333333333324
40
0.96666666666666656
40
1
40
1
40
1
40
1
40
1
40
1
41
1
41
1
41
1
41
1
41
1
41
1
41
1
41
1
41
1
41
1
41
1
41
1
41
1
41
1
41
1
41
1
41
1
41
1
41
1
41
1
41
1
41
1
41
1
41
1
41
1
41
1
41
1
41
1
41
1
41
1
41
1
41
1
41
1
41
1
41
1
10
-22.181325206238348
20
32.986269541106083
30
0
10
-22.113708621592817
20
32.017822630401639
30
0
10
-21.979849983419388
20
30.116152995952817
30
0
10
-21.783186186814952
20
27.369320999278752
30
0
10
-21.529226218264643
20
23.918606831433227
30
0
10
-21.220566238951264
20
19.960630792752681
30
0
10
-20.905503540643959
20
16.361814392718589
30
0
10
-20.553615815137306
20
13.12665862602241
30
0
10
-20.11357196023669
20
10.259989710772965
30
0
10
-19.508712207827493
20
7.7663149558400253
30
0
10
-18.62897264383448
20
5.6495222261707676
30
0
10
-17.355964355531491
20
3.9089269847836912
30
0
10
-15.591978745336332
20
2.5349733190818817
30
0
10
-13.289316258577919
20
1.5044507918674532
30
0
10
-10.47558998337138
20
0.77706002608662228
30
0
10
-7.2346708292324156
20
0.30551941143821187
30
0
10
-3.6920211552021986
20
0.044383088620827897
30
0
10
0.0012131061693782649
20
-0.040706646550172532
30
0
10
3.6832850640528991
20
0.036056176118641051
30
0
10
7.1970970880677543
20
0.28990367463225553
30
0
10
10.401871200080933
20
0.75611607348704879
30
0
10
13.184796247438912
20
1.4808023084497228
30
0
10
15.473290006968647
20
2.511544229881586
30
0
10
17.246522458626345
20
3.8883814748689187
30
0
10
18.549990665559218
20
5.6337333045556015
30
0
10
19.472371413661914
20
7.756263500246213
30
0
10
20.12011252629021
20
10.255712784227196
30
0
10
20.591889935610205
20
13.127383185464168
30
0
10
20.956633458871746
20
16.366204880881384
30
0
10
21.260612776403146
20
19.966988000478011
30
0
10
21.531385426768178
20
23.925023699350966
30
0
10
21.732536394231865
20
27.374183820592748
30
0
10
21.876788958418892
20
30.118938390586059
30
0
10
21.970025957225182
20
32.018818520777266
30
0
10
22.015911530781761
20
32.986269541106083
30
0
0
SPLINE
5
104
100
AcDbEntity
8
0
100
AcDbSpline
70
4
71
5
72
26
73
20
74
0
42
0.000000001
43
0.0000000001
44
0.0000000001
40
0
40
0
40
0
40
0
40
0
40
0
40
0.066666666666666666
40
0.13333333333333333
40
0.20000000000000001
40
0.26666666666666666
40
0.33333333333333331
40
0.39999999999999997
40
0.46666666666666662
40
0.53333333333333333
40
0.59999999999999998
40
0.66666666666666663
40
0.73333333333333328
40
0.79999999999999993
40
0.86666666666666659
40
0.93333333333333324
40
1
40
1
40
1
40
1
40
1
40
1
41
1
41
1
41
1
41
1
41
1
41
1
41
1
41
1
41
1
41
1
41
1
41
1
41
1
41
1
41
1
41
1
41
1
41
1
41
1
41
1
10
22.015911530781761
20
32.986269541106083
30
0
10
22.199013289421039
20
33.431463290889795
30
0
10
22.55492528441134
20
34.319718792303291
30
0
10
23.057919179422882
20
35.645706044579413
30
0
10
23.666376579180813
20
37.400804140768187
30
0
10
24.320810311929378
20
39.572222384866564
30
0
10
24.866379790011109
20
41.71922426556236
30
0
10
25.301573497733258
20
43.838644261095567
30
0
10
25.627568412540139
20
45.925973123544594
30
0
10
25.850731573565469
20
47.97514689643809
30
0
10
25.983265228801088
20
49.978732223773775
30
0
10
26.040105218211206
20
51.92877574471521
30
0
10
26.036951619701657
20
53.817686938300696
30
0
10
25.988280912463843
20
55.639153809225391
30
0
10
25.905291024805273
20
57.389605260183707
30
0
10
25.794927636499338
20
59.068655587337005
30
0
10
25.687864340823928
20
60.355599452788766
30
0
10
25.597728991164761
20
61.289779276957084
30
0
10
25.533299253649133
20
61.898874083431316
30
0
10
25.499999430030584
20
62.199998609721661
30
0
0
SPLINE
5
105
100
AcDbEntity
8
0
100
AcDbSpline
70
4
71
5
72
21
73
15
74
0
42
0.000000001
43
0.0000000001
44
0.0000000001
40
0
40
0
40
0
40
0
40
0
40
0
40
0.10000000000000001
40
0.20000000000000001
40
0.30000000000000004
40
0.40000000000000002
40
0.5
40
0.59999999999999998
40
0.69999999999999996
40
0.79999999999999993
40
0.89999999999999991
40
1
40
1
40
1
40
1
40
1
40
1
41
1
41
1
41
1
41
1
41
1
41
1
41
1
41
1
41
1
41
1
41
1
41
1
41
1
41
1
41
1
10
25.499999430030584
20
62.199998609721661
30
0
10
24.899227122826591
20
63.750863469371012
30
0
10
23.709280709589127
20
66.806910897350846
30
0
10
21.959154666738328
20
71.25393920850334
30
0
10
19.696393844052533
20
76.904681632208948
30
0
10
16.995704023921057
20
83.464891563873095
30
0
10
14.439683690203735
20
89.455286097001107
30
0
10
12.051093203160256
20
94.786218105107295
30
0
10
9.8557740655349093
20
99.355904644564546
30
0
10
7.8780084511277231
20
103.06870456200805
30
0
10
6.1331700450103286
20
105.86406491914292
30
0
10
4.9208732029301752
20
107.3773035295042
30
0
10
4.1108037884434276
20
108.12169380978958
30
0
10
3.6141032003209443
20
108.44722662899457
30
0
10
3.376589846466862
20
108.56730915580009
30
0
0
ENDSEC
0
SECTION
2
OBJECTS
0
DICTIONARY
5
C
100
AcDbDictionary
3
ACAD_GROUP
350
D
3
ACAD_MLINESTYLE
350
17
0
DICTIONARY
5
D
100
AcDbDictionary
0
DICTIONARY
5
1A
330
C
100
AcDbDictionary
0
DICTIONARY
5
17
100
AcDbDictionary
0
ENDSEC
0
EOF
